<mxfile host="app.diagrams.net" agent="Mozilla/5.0 (Windows NT 10.0; Win64; x64) AppleWebKit/537.36 (KHTML, like Gecko) Chrome/137.0.0.0 Safari/537.36" version="27.1.6">
  <diagram id="C5RBs43oDa-KdzZeNtuy" name="Backend diagram">
    <mxGraphModel dx="1042" dy="527" grid="1" gridSize="10" guides="1" tooltips="1" connect="1" arrows="1" fold="1" page="1" pageScale="1" pageWidth="827" pageHeight="1169" math="0" shadow="0">
      <root>
        <mxCell id="WIyWlLk6GJQsqaUBKTNV-0" />
        <mxCell id="WIyWlLk6GJQsqaUBKTNV-1" parent="WIyWlLk6GJQsqaUBKTNV-0" />
        <mxCell id="0Fknj3TEt2xJ0s67hb96-4" value="Eureka" style="rounded=1;whiteSpace=wrap;html=1;" vertex="1" parent="WIyWlLk6GJQsqaUBKTNV-1">
          <mxGeometry x="230" y="610" width="120" height="60" as="geometry" />
        </mxCell>
        <mxCell id="0Fknj3TEt2xJ0s67hb96-6" value="" style="group" vertex="1" connectable="0" parent="WIyWlLk6GJQsqaUBKTNV-1">
          <mxGeometry x="150" y="380" width="280" height="160" as="geometry" />
        </mxCell>
        <mxCell id="0Fknj3TEt2xJ0s67hb96-0" value="Product service" style="rounded=1;whiteSpace=wrap;html=1;" vertex="1" parent="0Fknj3TEt2xJ0s67hb96-6">
          <mxGeometry width="130" height="68.57" as="geometry" />
        </mxCell>
        <mxCell id="0Fknj3TEt2xJ0s67hb96-2" value="Authentication" style="rounded=1;whiteSpace=wrap;html=1;" vertex="1" parent="0Fknj3TEt2xJ0s67hb96-6">
          <mxGeometry y="91.43" width="130" height="68.57" as="geometry" />
        </mxCell>
        <mxCell id="0Fknj3TEt2xJ0s67hb96-3" value="Facility" style="rounded=1;whiteSpace=wrap;html=1;" vertex="1" parent="0Fknj3TEt2xJ0s67hb96-6">
          <mxGeometry x="160" width="120" height="68.57142857142858" as="geometry" />
        </mxCell>
        <mxCell id="0Fknj3TEt2xJ0s67hb96-5" value="Documentation" style="rounded=1;whiteSpace=wrap;html=1;" vertex="1" parent="0Fknj3TEt2xJ0s67hb96-6">
          <mxGeometry x="160" y="91.42857142857143" width="120" height="68.57142857142858" as="geometry" />
        </mxCell>
        <mxCell id="0Fknj3TEt2xJ0s67hb96-11" value="" style="endArrow=none;dashed=1;html=1;rounded=0;" edge="1" parent="WIyWlLk6GJQsqaUBKTNV-1">
          <mxGeometry width="50" height="50" relative="1" as="geometry">
            <mxPoint x="460" y="560" as="sourcePoint" />
            <mxPoint x="460" y="360" as="targetPoint" />
          </mxGeometry>
        </mxCell>
        <mxCell id="0Fknj3TEt2xJ0s67hb96-12" value="" style="endArrow=none;dashed=1;html=1;rounded=0;" edge="1" parent="WIyWlLk6GJQsqaUBKTNV-1">
          <mxGeometry width="50" height="50" relative="1" as="geometry">
            <mxPoint x="120" y="560" as="sourcePoint" />
            <mxPoint x="460" y="560" as="targetPoint" />
            <Array as="points">
              <mxPoint x="290" y="560" />
            </Array>
          </mxGeometry>
        </mxCell>
        <mxCell id="0Fknj3TEt2xJ0s67hb96-13" value="" style="endArrow=none;dashed=1;html=1;rounded=0;" edge="1" parent="WIyWlLk6GJQsqaUBKTNV-1">
          <mxGeometry width="50" height="50" relative="1" as="geometry">
            <mxPoint x="120" y="360" as="sourcePoint" />
            <mxPoint x="120" y="560" as="targetPoint" />
          </mxGeometry>
        </mxCell>
        <mxCell id="0Fknj3TEt2xJ0s67hb96-14" value="" style="endArrow=none;dashed=1;html=1;rounded=0;" edge="1" parent="WIyWlLk6GJQsqaUBKTNV-1">
          <mxGeometry width="50" height="50" relative="1" as="geometry">
            <mxPoint x="120" y="360" as="sourcePoint" />
            <mxPoint x="460" y="360" as="targetPoint" />
          </mxGeometry>
        </mxCell>
        <mxCell id="0Fknj3TEt2xJ0s67hb96-16" value="" style="endArrow=classic;html=1;rounded=0;entryX=0.5;entryY=0;entryDx=0;entryDy=0;" edge="1" parent="WIyWlLk6GJQsqaUBKTNV-1" target="0Fknj3TEt2xJ0s67hb96-4">
          <mxGeometry width="50" height="50" relative="1" as="geometry">
            <mxPoint x="290" y="560" as="sourcePoint" />
            <mxPoint x="480" y="460" as="targetPoint" />
          </mxGeometry>
        </mxCell>
      </root>
    </mxGraphModel>
  </diagram>
</mxfile>
